<svg xmlns="http://www.w3.org/2000/svg" xmlns:xlink="http://www.w3.org/1999/xlink" width="96" height="96"><defs id="defs6519"><filter id="filter1121" color-interpolation-filters="sRGB"><feFlood id="feFlood1123" result="flood" flood-color="#000" flood-opacity=".6"/><feComposite id="feComposite1125" result="composite1" operator="out" in2="SourceGraphic" in="flood"/><feGaussianBlur id="feGaussianBlur1127" result="blur" stdDeviation="1" in="composite1"/><feOffset id="feOffset1129" result="offset" dy="2"/><feComposite id="feComposite1131" result="composite2" operator="atop" in2="SourceGraphic" in="offset"/></filter><filter id="filter950" color-interpolation-filters="sRGB"><feFlood id="feFlood952" result="flood" flood-color="#000" flood-opacity=".25"/><feComposite id="feComposite954" result="composite1" operator="in" in2="SourceGraphic" in="flood"/><feGaussianBlur id="feGaussianBlur956" result="blur" stdDeviation="1" in="composite1"/><feOffset id="feOffset958" result="offset" dy="1"/><feComposite id="feComposite960" result="composite2" in2="offset" in="SourceGraphic"/></filter><filter id="filter891"><feGaussianBlur id="feGaussianBlur893" stdDeviation=".72"/></filter><filter id="filter3831"><feGaussianBlur stdDeviation=".863" id="feGaussianBlur3833"/></filter><filter id="filter3868" x="-.172" width="1.344" y="-.164" height="1.329"><feGaussianBlur stdDeviation=".626" id="feGaussianBlur3870"/></filter><linearGradient id="linearGradient4328"><stop id="stop4330" offset="0" stop-color="#871f1c"/><stop id="stop4332" offset="1" stop-color="#651715"/></linearGradient><linearGradient id="linearGradient902"><stop id="stop904" offset="0" stop-color="#ccc"/><stop id="stop906" offset="1" stop-color="#e6e6e6"/></linearGradient><linearGradient id="Background"><stop offset="0" id="stop4178" stop-color="#22779e"/><stop offset="1" id="stop4180" stop-color="#2991c0"/></linearGradient><clipPath id="clipPath873"/><style type="text/css" id="style867">.fil0 {fill:#1F1A17}</style><linearGradient gradientUnits="userSpaceOnUse" y2="635.291" x2="-220" y1="731.291" x1="-220" id="linearGradient908" xlink:href="#linearGradient902"/><clipPath id="clipPath16"><path d="M-9-9h614v231h-614v-231z" id="path18"/></clipPath><clipPath id="clipPath116"><path d="M91.737 146.325l-9.704-1.577-8.855-3.881-7.521-4.731-7.157-8.733-4.043-4.282-3.909-1.441-1.034 2.527 1.808 2.61.406 3.68 1.211-.049 1.323-1.207-.357 3.749-1.467.984.044 1.429-3.474-1.966-3.146-3.712-.656-3.318 1.345-2.657 1.255-4.513 2.552-1.208 2.685.132 2.546 1.479-1.698-8.612 1.698-9.582-1.869-4.425-6.122-6.596 1.089-3.941 2.9-4.567 5.469-3.849 2.901-.397 3.225-.109-2.012-8.26 7.399-3.033 9.219-1.213 3.154 2.062.243 5.58 3.518 5.822.243 4.609 8.491-.607 7.884.728-7.884-4.731 1.334-5.701 4.973-7.763 4.852-2.062 3.881 1.577 1.577 3.154 8.127 6.186 1.577-1.334 12.736-.485 2.547 2.062.243 3.639-.849 1.577-.607 9.825-4.245 8.491.728 3.76 2.547-1.334 7.157-6.672 3.518-.242 3.881 1.577 3.882 2.911 1.941 6.308 11.402-.728 6.914 2.669 5.58 5.216 4.003 7.521.971 8.855-.849 10.31-2.183 9.219-2.184 2.911-3.032.971-5.337-5.822-4.852-1.698-4.245 7.035-4.245 3.881-2.305 1.456-9.219 7.642-7.399 4.003-7.399.607-8.612-1.456-7.521-2.79-5.216-4.245-4.124-4.973-4.245-1.213" id="path118"/></clipPath><clipPath id="clipPath128"><path d="M91.737 146.325l-9.704-1.577-8.855-3.881-7.521-4.731-7.157-8.733-4.043-4.282-3.909-1.441-1.034 2.527 1.808 2.61.406 3.68 1.211-.049 1.323-1.207-.357 3.749-1.467.984.044 1.429-3.474-1.966-3.146-3.712-.656-3.318 1.345-2.657 1.255-4.513 2.552-1.208 2.685.132 2.546 1.479-1.698-8.612 1.698-9.582-1.869-4.425-6.122-6.596 1.089-3.941 2.9-4.567 5.469-3.849 2.901-.397 3.225-.109-2.012-8.26 7.399-3.033 9.219-1.213 3.154 2.062.243 5.58 3.518 5.822.243 4.609 8.491-.607 7.884.728-7.884-4.731 1.334-5.701 4.973-7.763 4.852-2.062 3.881 1.577 1.577 3.154 8.127 6.186 1.577-1.334 12.736-.485 2.547 2.062.243 3.639-.849 1.577-.607 9.825-4.245 8.491.728 3.76 2.547-1.334 7.157-6.672 3.518-.242 3.881 1.577 3.882 2.911 1.941 6.308 11.402-.728 6.914 2.669 5.58 5.216 4.003 7.521.971 8.855-.849 10.31-2.183 9.219-2.184 2.911-3.032.971-5.337-5.822-4.852-1.698-4.245 7.035-4.245 3.881-2.305 1.456-9.219 7.642-7.399 4.003-7.399.607-8.612-1.456-7.521-2.79-5.216-4.245-4.124-4.973-4.245-1.213" id="path130"/></clipPath><linearGradient id="linearGradient3850"><stop offset="0" id="stop3852"/><stop offset="1" id="stop3854" stop-opacity="0"/></linearGradient><clipPath id="clipPath3095"><path id="path3097" d="M976.648 389.551h-842.402v839.999h842.402v-839.999"/></clipPath><clipPath id="clipPath3195"><path id="path3197" d="M611.836 756.738l-106.34 105.207c-8.473 8.289-13.617 20.102-13.598 33.379l106.403-105.117c-.031-13.418 5.094-25.031 13.535-33.469"/></clipPath><clipPath id="clipPath3235"><path id="path3237" d="M1095.64 1501.81c35.46-35.07 70.89-70.11 106.35-105.17 4.4-4.38 7.11-10.53 7.11-17.55l-106.37 105.21c0 7-2.71 13.11-7.09 17.51"/></clipPath><linearGradient id="linearGradient4389"><stop offset="0" id="stop4391" stop-color="#871f1c"/><stop offset="1" id="stop4393" stop-color="#c42e24"/></linearGradient><clipPath id="clipPath4591"><path id="path4593" d="M1106.601 730.437l-.036 21.648c-.01 3.508-2.868 6.614-6.404 6.925l-83.65 7.332c-3.521.308-6.381-2.3-6.367-5.814l.036-21.648 20.117-1.767-.011 4.638c0 1.839 1.484 3.199 3.326 3.039l49.527-4.34c1.843-.166 3.342-1.781 3.354-3.626l.01-4.63 20.1-1.758" fill="#f0f"/></clipPath><radialGradient xlink:href="#linearGradient3850" id="radialGradient3856" cx="-26.509" cy="93.399" fx="-26.509" fy="93.399" r="20.407" gradientTransform="matrix(-1.433 -2.274 1.173 -.739 -174.08 98.374)" gradientUnits="userSpaceOnUse"/><filter id="filter3885"><feGaussianBlur stdDeviation="5.744" id="feGaussianBlur3887"/></filter><linearGradient xlink:href="#linearGradient3850" id="linearGradient3895" x1="348.201" y1="593.116" x2="-51.88" y2="993.197" gradientUnits="userSpaceOnUse" gradientTransform="translate(-318.48 212.32)"/><radialGradient xlink:href="#linearGradient3850" id="radialGradient3902" gradientUnits="userSpaceOnUse" gradientTransform="matrix(-1.433 -2.274 1.173 -.739 -174.08 98.374)" cx="-26.509" cy="93.399" fx="-26.509" fy="93.399" r="20.407"/><linearGradient xlink:href="#linearGradient3850" id="linearGradient3904" gradientUnits="userSpaceOnUse" gradientTransform="translate(-318.48 212.32)" x1="348.201" y1="593.116" x2="-51.88" y2="993.197"/><linearGradient gradientUnits="userSpaceOnUse" y2="23.384" x2="25.218" y1="27.096" x1="21.506" id="linearGradient4318" xlink:href="#linearGradient4389"/><linearGradient gradientUnits="userSpaceOnUse" y2="20.884" x2="71.96" y1="20.042" x1="72.803" id="linearGradient4326" xlink:href="#linearGradient4389"/><linearGradient gradientUnits="userSpaceOnUse" y2="74.247" x2="21.692" y1="73.644" x1="22.295" id="linearGradient4334" xlink:href="#linearGradient4328"/><linearGradient gradientUnits="userSpaceOnUse" y2="24.881" x2="57.451" y1="77.405" x1="57.451" id="linearGradient4319" xlink:href="#linearGradient4552"/><linearGradient id="linearGradient4552"><stop id="stop4554" offset="0" stop-color="#d93023"/><stop id="stop4556" offset="1" stop-color="#e63f46"/></linearGradient><linearGradient xlink:href="#linearGradient4389" id="linearGradient4489" x1="-220.197" y1="696.81" x2="-187.419" y2="677.885" gradientUnits="userSpaceOnUse"/><linearGradient xlink:href="#linearGradient4389" id="linearGradient4502" x1="-223.443" y1="686.361" x2="-214.06" y2="676.978" gradientUnits="userSpaceOnUse"/></defs><g id="layer1"><path id="path6455" d="M0 64.865v-33.73c0-27.243 3.888-31.135 31.103-31.135h33.794c27.215 0 31.103 3.892 31.103 31.135v33.73c0 27.243-3.888 31.135-31.103 31.135h-33.794c-27.215 0-31.103-3.892-31.103-31.135z" fill="url(#linearGradient908)" filter="url(#filter1121)"/><g id="g4336"><g id="g3897" xml:space="default" color="#000"><path d="M-48.094 67.813c-.874-.003-2.09.02-3.406.094-2.633.148-5.7.472-7.781 1.531a1 1 0 0 0-.25 1.594l20.719 21.344a1 1 0 0 0 .844.313l13.969-2.125a1 1 0 0 0 .531-1.719l-22.594-20.719a1 1 0 0 0-.625-.281s-.532-.028-1.406-.031z" transform="matrix(.722 0 0 .722 53.302 13.04)" id="path3821" xml:space="default" opacity=".7" fill="url(#radialGradient3902)" overflow="visible" filter="url(#filter3831)" enable-background="accumulate"/><path d="M20.25 72.046l6.314 6.605" id="path3858" xml:space="default" opacity=".6" stroke="#000" stroke-width="2.002828" stroke-linecap="round" overflow="visible" filter="url(#filter3868)" enable-background="accumulate" fill="none"/><path style="text-indent:0;text-align:start;line-height:normal;text-transform:none;block-progression:tb;-inkscape-font-specification:Sans" d="M-95.189 981.036a10.617 10.617 0 0 1-.995-.332l-42.796-5.308a10.617 10.617 0 0 1-6.303-17.915l140.994-144.975a10.617 10.617 0 0 1 8.957-3.317l49.099 7.63a10.617 10.617 0 0 1 5.972 17.915l-147.297 143.316a10.617 10.617 0 0 1-7.63 2.986z" id="path3874" xml:space="default" opacity=".3" fill="url(#linearGradient3904)" overflow="visible" filter="url(#filter3885)" enable-background="accumulate" font-family="Sans" transform="matrix(.068 0 0 -.068 28.959 130.395)"/></g><path d="M20.697 20.516c-1.36.586-2.348 1.941-2.352 3.455l.008 45.631c-.004.875.332 1.638.869 2.201l-.01.01.145.143.01.008 7.293 7.164 6.828-7.389 33.793-2.961c.463-.041.903-.174 1.307-.373l-16.076-16.074c-2.314.999-4.954 1.761-7.955 2.023-7.189.63-12.394-1.878-15.639-4.27v-6.871c0-.435-.141-.833-.375-1.16 1.962-1.854 4.68-3.943 8.242-5.449l-16.088-16.088zm19.49 19.49c-1.337 1.319-2.183 3.131-2.184 5.072 0 3.626 2.934 6.309 6.553 5.992 1.745-.153 3.327-.978 4.502-2.195l-8.871-8.869z" id="path4308" color="#000" fill="#871f1c" overflow="visible" enable-background="accumulate"/><path d="M67.32 16.254l-45.498 3.959c-.396.035-.77.15-1.125.303l16.088 16.088c2.271-.961 4.85-1.693 7.773-1.949.819-.072 1.613-.105 2.381-.1 11.52.072 17.279 8.227 17.279 8.227s-3.914 6.185-11.707 9.549l16.076 16.074c1.271-.626 2.169-1.942 2.172-3.389l.016-33.629 6.457-6.988-7.34-7.219-.008.01c-.633-.647-1.542-1.018-2.564-.936zm-22.092 21.658c-.22-.003-.444.006-.67.025-1.682.147-3.211.923-4.371 2.068l8.871 8.869c1.262-1.307 2.052-3.067 2.053-4.945.001-3.4-2.578-5.971-5.883-6.018z" id="path4233" color="#000" fill="#c42e24" overflow="visible" enable-background="accumulate"/><path xml:space="default" id="rect3585-3" opacity=".8" color="#000" overflow="visible" enable-background="accumulate" fill="none" d="M9.293 13.2h69.207v69.207h-69.207z"/><path style="text-indent:0;text-align:start;line-height:normal;text-transform:none;block-progression:tb;-inkscape-font-specification:sans-serif" d="M22.029 20.195l-.207.018c-1.902.169-3.451 1.83-3.473 3.727l6.313 6.313.943.943v-.092c.004-1.91 1.563-3.588 3.477-3.758l.09-.008-.799-.799-6.344-6.344z" id="path4256" color="#000" color-interpolation-filters="sRGB" fill="url(#linearGradient4318)" overflow="visible" enable-background="accumulate" font-family="sans-serif"/><path style="text-indent:0;text-align:start;line-height:normal;text-transform:none;block-progression:tb;-inkscape-font-specification:sans-serif" d="M67.33 16.254l.701.701 6.441 6.441.107-.01c.952-.077 1.811.234 2.436.799l-7.123-7.006-.008.01c-.631-.645-1.536-1.015-2.555-.936zm9.725 7.969l.166.188.012-.012-.178-.176z" id="path4272" opacity=".536" color="#000" color-interpolation-filters="sRGB" fill="url(#linearGradient4326)" overflow="visible" enable-background="accumulate" font-family="sans-serif"/><path style="text-indent:0;text-align:start;line-height:normal;text-transform:none;block-progression:tb;-inkscape-font-specification:sans-serif" d="M18.363 69.713c.025.827.346 1.551.859 2.09l-.01.01.145.143.01.008 7.232 7.105c-.555-.518-.901-1.247-.961-2.08l-6.688-6.689-.588-.586zm8.273 9.391l.023.023.004-.004-.027-.02z" id="path4290" color="#000" color-interpolation-filters="sRGB" fill="url(#linearGradient4334)" overflow="visible" enable-background="accumulate" font-family="sans-serif"/><path d="M45.229 37.912c-.22-.003-.444.006-.67.025-1.682.147-3.211.923-4.371 2.068-1.337 1.319-2.183 3.131-2.184 5.072 0 1.733.675 3.245 1.77 4.322l-.006.006 6.971 6.828 9.896-9.469-7.207-7.082-.057-.057-.156-.152-.006.006c-1.04-.961-2.428-1.546-3.98-1.568z" id="path4494" color="#000" fill="url(#linearGradient4502)" overflow="visible" enable-background="accumulate"/><path d="M74.58 23.387l-45.498 3.959c-1.913.17-3.473 1.848-3.477 3.758l.008 45.631c-.008 1.909 1.546 3.327 3.459 3.16l45.469-3.984c1.921-.169 3.475-1.856 3.479-3.762l.021-45.594c.003-1.914-1.545-3.323-3.461-3.168zm-20.385 18.301c11.52.072 17.279 8.227 17.279 8.227s-6.556 10.424-19.662 11.572c-13.104 1.148-19.656-8.127-19.656-8.127s6.552-10.423 19.658-11.572c.819-.072 1.613-.105 2.381-.1zm-1.711 3.357c-.22-.003-.444.006-.67.025-3.619.317-6.554 3.514-6.555 7.141 0 3.626 2.934 6.309 6.553 5.992 3.619-.317 6.554-3.514 6.555-7.141.001-3.4-2.578-5.971-5.883-6.018z" id="path4633-5" fill="url(#linearGradient4319)"/><path d="M63.533 43.736c-.898 1.179-2.705 3.284-5.479 5.361.2.611.313 1.27.313 1.965-.001 3.627-2.936 6.824-6.555 7.141-2.909.255-5.373-1.43-6.229-3.984-.343.044-.674.104-1.027.135-4.775.418-8.67-.553-11.705-1.949-.414.548-.695.955-.695.955s6.552 9.275 19.656 8.127c13.106-1.148 19.662-11.572 19.662-11.572s-2.652-3.741-7.941-6.178z" id="path4475" color="#000" fill="url(#linearGradient4489)" overflow="visible" enable-background="accumulate"/><path d="M74.58 23.387l-45.498 3.959c-1.913.17-3.473 1.848-3.477 3.758v.199c.004-1.91 1.563-3.588 3.477-3.758l45.498-3.959c1.916-.155 3.464 1.254 3.461 3.168v-.199c.003-1.914-1.545-3.323-3.461-3.168zm-22.096 21.658c-.22-.003-.444.006-.67.025-3.619.317-6.554 3.514-6.555 7.141l.006.1c.054-3.585 2.963-6.727 6.549-7.041.226-.019.45-.028.67-.025 3.271.046 5.828 2.567 5.879 5.916l.004-.098c.001-3.4-2.578-5.971-5.883-6.018zm18.918 4.975c-.374.578-6.869 10.353-19.59 11.467-12.717 1.114-19.209-7.518-19.584-8.033l-.072.105s6.552 9.275 19.656 8.127c13.106-1.148 19.662-11.572 19.662-11.572l-.072-.094z" id="path4517" fill="#fff" opacity=".3"/></g></g></svg>