<?xml version="1.0" encoding="UTF-8" standalone="no"?>
<!-- Created with Inkscape (http://www.inkscape.org/) -->

<svg
   xmlns:dc="http://purl.org/dc/elements/1.1/"
   xmlns:cc="http://creativecommons.org/ns#"
   xmlns:rdf="http://www.w3.org/1999/02/22-rdf-syntax-ns#"
   xmlns:svg="http://www.w3.org/2000/svg"
   xmlns="http://www.w3.org/2000/svg"
   xmlns:sodipodi="http://sodipodi.sourceforge.net/DTD/sodipodi-0.dtd"
   xmlns:inkscape="http://www.inkscape.org/namespaces/inkscape"
   width="67.047028pc"
   height="21.523954pc"
   viewBox="0 0 1005.7055 322.85931"
   id="svg3516"
   version="1.1"
   inkscape:version="0.91 r13725"
   sodipodi:docname="logo.svg">
  <defs
     id="defs3518" />
  <sodipodi:namedview
     id="base"
     pagecolor="#ffffff"
     bordercolor="#666666"
     borderopacity="1.0"
     inkscape:pageopacity="0.0"
     inkscape:pageshadow="2"
     inkscape:zoom="0.35"
     inkscape:cx="-273.74687"
     inkscape:cy="623.31849"
     inkscape:document-units="px"
     inkscape:current-layer="g3590"
     showgrid="false"
     inkscape:window-width="1863"
     inkscape:window-height="1059"
     inkscape:window-x="57"
     inkscape:window-y="21"
     inkscape:window-maximized="1"
     units="pc"
     fit-margin-top="0"
     fit-margin-left="0"
     fit-margin-right="0"
     fit-margin-bottom="0" />
  <metadata
     id="metadata3521">
    <rdf:RDF>
      <cc:Work
         rdf:about="">
        <dc:format>image/svg+xml</dc:format>
        <dc:type
           rdf:resource="http://purl.org/dc/dcmitype/StillImage" />
        <dc:title></dc:title>
      </cc:Work>
    </rdf:RDF>
  </metadata>
  <g
     inkscape:label="Layer 1"
     inkscape:groupmode="layer"
     id="layer1"
     style="display:inline"
     transform="translate(-33.032591,-489.96448)">
    <g
       id="g3590"
       transform="matrix(0.01284535,0.99991749,-0.99991749,0.01284535,1476.9714,-251.22499)">
      <ellipse
         style="fill:#ffffff;fill-opacity:1"
         id="path3647"
         cx="-1271.2571"
         cy="892.15857"
         transform="matrix(0.01284535,-0.9999175,0.9999175,0.01284535,0,0)"
         rx="137.14287"
         ry="114.28571" />
      <g
         id="g4"
         transform="matrix(0,-0.83346317,0.80714286,0,724.70894,1455.4285)">
        <path
           id="path6"
           d="M 200,0 C 89.718,0 0,89.718 0,199.996 0,310.274 89.718,400 200,400 310.282,400 400,310.275 400,199.996 400,89.718 310.282,0 200,0 Z m 93.736,256.127 -187.466,0 c -31.065,0 -56.25,-25.18 -56.25,-56.24 0,-29.9 23.323,-54.33 52.762,-56.137 -13.16,-26.39 -3.658,-58.81 22.232,-73.762 25.89,-14.944 58.71,-6.964 74.99,17.632 16.288,-24.592 49.096,-32.572 74.993,-17.625 25.887,14.947 35.384,47.36 22.225,73.76 29.45,1.805 52.76,26.235 52.76,56.136 0,31.056 -25.187,56.237 -56.246,56.237 z"
           inkscape:connector-curvature="0"
           style="fill:#dd4814" />
      </g>
      <path
         inkscape:connector-curvature="0"
         id="path3442"
         d="m 898.1652,1327.7337 -27.4796,31.1408 -8.2722,-8.8956 -8.2722,-8.8955 2.6084,-3.1531 c 1.4346,-1.7342 9.2263,-10.6109 17.3148,-19.7262 8.0886,-9.1152 14.6924,-17.074 14.6751,-17.6862 -0.017,-0.6122 -19.4119,-15.6312 -43.0993,-33.3755 -27.2605,-20.4211 -42.7252,-32.8649 -42.1341,-33.9036 4.3897,-7.7141 11.7605,-19.2992 12.2786,-19.2992 0.8512,0 104.453,77.479 107.4976,80.3925 2.2079,2.1128 0.5632,4.2998 -25.1171,33.4016 z"
         style="fill:#dd4814;fill-opacity:1" />
      <text
         transform="matrix(0.0311759,-1.0180039,0.98139407,0.03005474,0,0)"
         sodipodi:linespacing="125%"
         id="text3336"
         y="1035.3882"
         x="-1041.5526"
         style="font-style:normal;font-weight:normal;font-size:304.69363403px;line-height:125%;font-family:sans-serif;letter-spacing:0px;word-spacing:0px;fill:#ffffff;fill-opacity:1;stroke:none;stroke-width:1px;stroke-linecap:butt;stroke-linejoin:miter;stroke-opacity:1"
         xml:space="preserve"><tspan
           style="font-style:normal;font-variant:normal;font-weight:normal;font-stretch:normal;font-family:Ubuntu;-inkscape-font-specification:Ubuntu;fill:#ffffff"
           y="1035.3882"
           x="-1041.5526"
           id="tspan3338"
           sodipodi:role="line">CDO</tspan></text>
      <flowRoot
         style="font-style:normal;font-weight:normal;font-size:40px;line-height:125%;font-family:sans-serif;letter-spacing:0px;word-spacing:0px;fill:#000000;fill-opacity:1;stroke:none;stroke-width:1px;stroke-linecap:butt;stroke-linejoin:miter;stroke-opacity:1"
         id="flowRoot3340"
         xml:space="preserve"><flowRegion
           id="flowRegion3342"><rect
             y="186.44067"
             x="462.71185"
             height="71.18644"
             width="37.288136"
             id="rect3344" /></flowRegion><flowPara
           id="flowPara3346" /></flowRoot>    </g>
  </g>
</svg>
