<?xml version="1.0" encoding="UTF-8" standalone="no"?>
<!-- Generator: Adobe Illustrator 15.1.0, SVG Export Plug-In . SVG Version: 6.00 Build 0)  -->

<svg
   xmlns:dc="http://purl.org/dc/elements/1.1/"
   xmlns:cc="http://creativecommons.org/ns#"
   xmlns:rdf="http://www.w3.org/1999/02/22-rdf-syntax-ns#"
   xmlns:svg="http://www.w3.org/2000/svg"
   xmlns="http://www.w3.org/2000/svg"
   xmlns:sodipodi="http://sodipodi.sourceforge.net/DTD/sodipodi-0.dtd"
   xmlns:inkscape="http://www.inkscape.org/namespaces/inkscape"
   version="1.1"
   id="Layer_1"
   x="0px"
   y="0px"
   width="10mm"
   height="10mm"
   viewBox="0 0 35.43307 35.43307"
   enable-background="new 0 0 1190.551 841.891"
   xml:space="preserve"
   inkscape:version="0.91 r13725"
   sodipodi:docname="maas.svg"><metadata
     id="metadata33"><rdf:RDF><cc:Work
         rdf:about=""><dc:format>image/svg+xml</dc:format><dc:type
           rdf:resource="http://purl.org/dc/dcmitype/StillImage" /><dc:title></dc:title></cc:Work></rdf:RDF></metadata><defs
     id="defs31" /><sodipodi:namedview
     pagecolor="#ffffff"
     bordercolor="#666666"
     borderopacity="1"
     objecttolerance="10"
     gridtolerance="10"
     guidetolerance="10"
     inkscape:pageopacity="0"
     inkscape:pageshadow="2"
     inkscape:window-width="2495"
     inkscape:window-height="1416"
     id="namedview29"
     showgrid="false"
     fit-margin-top="0"
     fit-margin-left="0"
     fit-margin-right="0"
     fit-margin-bottom="0"
     inkscape:zoom="2.8318694"
     inkscape:cx="240.15985"
     inkscape:cy="75.293154"
     inkscape:window-x="65"
     inkscape:window-y="24"
     inkscape:window-maximized="1"
     inkscape:current-layer="Layer_1"
     units="mm" /><g
     id="g3"
     transform="matrix(0.09470918,0,0,0.09470842,-2.4720042,-21.12196)"><g
       id="g5"><path
         d="m 213.165,223.021 c -103.148,0 -187.064,83.925 -187.064,187.057 0,103.15 83.916,187.071 187.064,187.071 103.154,0 187.061,-83.922 187.061,-187.071 C 400.225,306.946 316.32,223.021 213.165,223.021 Z"
         id="path7"
         inkscape:connector-curvature="0"
         style="fill:#dd4814" /></g><g
       id="g9"><path
         d="m 291.644,319.872 -78.48,0 -78.485,0 c -13.546,0 -20.242,4.846 -20.242,10.771 l 0,5.396 c 0,6.595 6.696,10.771 20.242,10.771 l 78.485,0 78.48,0 c 13.549,0 20.242,-4.176 20.242,-10.771 l 0,-5.396 c 0,-5.925 -6.693,-10.771 -20.242,-10.771 z"
         id="path11"
         inkscape:connector-curvature="0"
         style="fill:#ffffff" /><path
         d="m 291.644,371.037 -78.48,0 -78.485,0 c -13.546,0 -20.242,4.844 -20.242,10.771 l 0,5.396 c 0,6.597 6.696,10.772 20.242,10.772 l 78.485,0 78.48,0 c 13.549,0 20.242,-4.177 20.242,-10.772 l 0,-5.396 c 0,-5.927 -6.693,-10.771 -20.242,-10.771 z"
         id="path13"
         inkscape:connector-curvature="0"
         style="fill:#ffffff" /><path
         d="m 291.644,422.195 -78.48,0 -78.485,0 c -13.546,0 -20.242,4.849 -20.242,10.772 l 0,5.396 c 0,6.595 6.696,10.771 20.242,10.771 l 78.485,0 78.48,0 c 13.549,0 20.242,-4.176 20.242,-10.771 l 0,-5.396 c 0,-5.923 -6.693,-10.772 -20.242,-10.772 z"
         id="path15"
         inkscape:connector-curvature="0"
         style="fill:#ffffff" /><path
         d="m 291.644,473.36 -78.48,0 -78.485,0 c -13.546,0 -20.242,4.847 -20.242,10.771 l 0,5.396 c 0,6.595 6.696,10.771 20.242,10.771 l 78.485,0 78.48,0 c 13.549,0 20.242,-4.176 20.242,-10.771 l 0,-5.396 c 0,-5.924 -6.693,-10.771 -20.242,-10.771 z"
         id="path17"
         inkscape:connector-curvature="0"
         style="fill:#ffffff" /></g></g></svg>