<?xml version="1.0" encoding="UTF-8" standalone="no"?>
<!-- Created with Inkscape (http://www.inkscape.org/) -->

<svg
   xmlns:dc="http://purl.org/dc/elements/1.1/"
   xmlns:cc="http://creativecommons.org/ns#"
   xmlns:rdf="http://www.w3.org/1999/02/22-rdf-syntax-ns#"
   xmlns:svg="http://www.w3.org/2000/svg"
   xmlns="http://www.w3.org/2000/svg"
   xmlns:sodipodi="http://sodipodi.sourceforge.net/DTD/sodipodi-0.dtd"
   xmlns:inkscape="http://www.inkscape.org/namespaces/inkscape"
   id="svg2"
   version="1.1"
   inkscape:version="0.91 r13725"
   xml:space="preserve"
   width="10mm"
   height="10mm"
   viewBox="0 0 35.43307 35.43307"
   sodipodi:docname="openstack.svg"><metadata
     id="metadata8"><rdf:RDF><cc:Work
         rdf:about=""><dc:format>image/svg+xml</dc:format><dc:type
           rdf:resource="http://purl.org/dc/dcmitype/StillImage" /><dc:title></dc:title></cc:Work></rdf:RDF></metadata><defs
     id="defs6"><clipPath
       clipPathUnits="userSpaceOnUse"
       id="clipPath4154"><rect
         style="fill:#000000;fill-opacity:0;stroke:none"
         id="rect4156"
         width="1889.356"
         height="1949.0347"
         x="-45.8517"
         y="-1841.7097"
         transform="scale(1,-1)"
         ry="0" /></clipPath></defs><sodipodi:namedview
     pagecolor="#ffffff"
     bordercolor="#666666"
     borderopacity="1"
     objecttolerance="10"
     gridtolerance="10"
     guidetolerance="10"
     inkscape:pageopacity="0"
     inkscape:pageshadow="2"
     inkscape:window-width="1248"
     inkscape:window-height="1388"
     id="namedview4"
     showgrid="false"
     fit-margin-top="0"
     fit-margin-left="0"
     fit-margin-right="0"
     fit-margin-bottom="0"
     inkscape:zoom="1.4804742"
     inkscape:cx="-68.649894"
     inkscape:cy="217.0894"
     inkscape:window-x="75"
     inkscape:window-y="24"
     inkscape:window-maximized="0"
     inkscape:current-layer="g10"
     units="mm" /><g
     id="g10"
     inkscape:groupmode="layer"
     inkscape:label="ink_ext_XXXXXX"
     transform="matrix(1.25,0,0,-1.25,0,35.433077)"><g
       id="g12"
       transform="scale(0.0153764,0.01571721)"
       clip-path="url(#clipPath4154)"><path
         d="m 1842.78,1228.84 -416.15,0 0,65.93 c 0,51.14 -41.46,92.61 -92.61,92.61 l -825.258,0 c -51.145,0 -92.606,-41.47 -92.606,-92.61 l 0,-65.93 -416.156,0 0,403.47 c 0,94.17 77.0469,171.22 171.219,171.22 l 1500.351,0 c 94.17,0 171.21,-77.05 171.21,-171.22 l 0,-403.47"
         style="fill:#ed1843;fill-opacity:1;fill-rule:nonzero;stroke:none"
         id="path14"
         inkscape:connector-curvature="0" /><path
         d="M 1671.57,0 171.219,0 C 77.0469,0 0,77.0508 0,171.219 l 0,403.472 416.156,0 0,-65.921 c 0,-51.149 41.465,-92.61 92.61,-92.61 l 825.254,0 c 51.15,0 92.61,41.461 92.61,92.61 l 0,65.921 416.15,0 0,-403.472 C 1842.78,77.0508 1765.74,0 1671.57,0"
         style="fill:#ed1843;fill-opacity:1;fill-rule:nonzero;stroke:none"
         id="path16"
         inkscape:connector-curvature="0" /><path
         d="m 0,693.691 416.156,0 0,416.156 -416.156,0 0,-416.156 z"
         style="fill:#ed1843;fill-opacity:1;fill-rule:nonzero;stroke:none"
         id="path18"
         inkscape:connector-curvature="0" /><path
         d="m 1426.63,693.691 416.152,0 0,416.156 -416.152,0 0,-416.156 z"
         style="fill:#ed1843;fill-opacity:1;fill-rule:nonzero;stroke:none"
         id="path20"
         inkscape:connector-curvature="0" /><path
         d="m 2004.63,22.6211 c -38.28,0 -69.41,31.1406 -69.41,69.418 0,38.2809 31.13,69.4219 69.41,69.4219 38.28,0 69.42,-31.141 69.42,-69.4219 0,-38.2774 -31.14,-69.418 -69.42,-69.418 z m 92.04,69.418 c 0,50.7499 -41.29,92.0309 -92.04,92.0309 -50.75,0 -92.03,-41.281 -92.03,-92.0309 0,-50.75 41.28,-92.0391 92.03,-92.0391 50.75,0 92.04,41.2891 92.04,92.0391"
         style="fill:#ed1441;fill-opacity:1;fill-rule:nonzero;stroke:none"
         id="path22"
         inkscape:connector-curvature="0" /><path
         d="m 2020.34,108.199 c 0,-8.109 -5.15,-13.5271 -14.69,-13.5271 l -13.78,0 0,27.1991 13.4,0 c 9.54,0 15.07,-4.519 15.07,-13.543 l 0,-0.129 z m 18.82,0.52 0,0.511 c 0,8.899 -2.71,15.981 -7.61,20.879 -5.67,5.672 -14.03,8.629 -24.47,8.629 l -33.88,0 0,-90.1794 18.67,0 0,29.6211 11.72,0 16.62,-29.6211 21.39,0 -19.2,33.5 c 9.93,4.3711 16.76,13.0117 16.76,26.6604"
         style="fill:#ed1441;fill-opacity:1;fill-rule:nonzero;stroke:none"
         id="path24"
         inkscape:connector-curvature="0" /></g></g></svg>