<?xml version="1.0" encoding="UTF-8" standalone="no"?>
<!-- Generator: Adobe Illustrator 14.0.0, SVG Export Plug-In  -->

<svg
   xmlns:dc="http://purl.org/dc/elements/1.1/"
   xmlns:cc="http://creativecommons.org/ns#"
   xmlns:rdf="http://www.w3.org/1999/02/22-rdf-syntax-ns#"
   xmlns:svg="http://www.w3.org/2000/svg"
   xmlns="http://www.w3.org/2000/svg"
   xmlns:sodipodi="http://sodipodi.sourceforge.net/DTD/sodipodi-0.dtd"
   xmlns:inkscape="http://www.inkscape.org/namespaces/inkscape"
   version="1.1"
   x="0px"
   y="0px"
   width="10mm"
   height="10mm"
   viewBox="-0.866 -0.866 35.433071 35.433071"
   enable-background="new -0.866 -0.866 285 285"
   xml:space="preserve"
   id="svg2"
   inkscape:version="0.91 r13725"
   sodipodi:docname="ubuntu.svg"><metadata
     id="metadata12"><rdf:RDF><cc:Work
         rdf:about=""><dc:format>image/svg+xml</dc:format><dc:type
           rdf:resource="http://purl.org/dc/dcmitype/StillImage" /><dc:title></dc:title></cc:Work></rdf:RDF></metadata><sodipodi:namedview
     pagecolor="#ffffff"
     bordercolor="#666666"
     borderopacity="1"
     objecttolerance="10"
     gridtolerance="10"
     guidetolerance="10"
     inkscape:pageopacity="0"
     inkscape:pageshadow="2"
     inkscape:window-width="2495"
     inkscape:window-height="1416"
     id="namedview10"
     showgrid="false"
     units="mm"
     inkscape:zoom="0.82807018"
     inkscape:cx="190.20127"
     inkscape:cy="142.5"
     inkscape:window-x="65"
     inkscape:window-y="24"
     inkscape:window-maximized="1"
     inkscape:current-layer="svg2" /><defs
     id="defs4" /><path
     d="m 35.433071,16.180822 c 0,9.78415 -7.932113,17.71629 -17.716723,17.71629 C 7.9317382,33.897112 0,25.965102 0,16.180822 0,6.3959325 7.9316132,-1.5359575 17.716223,-1.5359575 c 9.78461,0 17.716848,7.93189 17.716848,17.7167795 z"
     id="path6"
     inkscape:connector-curvature="0"
     style="fill:#dd4814" /><path
     d="m 5.6694914,13.815572 c -1.306623,0 -2.3653713,1.05875 -2.3653713,2.36538 0,1.30613 1.0587483,2.365 2.3653713,2.365 1.306123,0 2.3649965,-1.05887 2.3649965,-2.365 0,-1.30675 -1.0587485,-2.36538 -2.3649965,-2.36538 z m 16.8883496,10.75027 c -1.131373,0.65313 -1.518623,2.09913 -0.865749,3.23001 0.653249,1.13138 2.099122,1.51888 3.230496,0.86575 1.130998,-0.653 1.518498,-2.099 0.865373,-3.23026 -0.652998,-1.13087 -2.099122,-1.5185 -3.23012,-0.8655 z m -11.750607,-8.38527 c 0,-2.33763 1.161623,-4.40238 2.937995,-5.65263 L 12.015982,7.6313125 c -2.069997,1.383 -3.6097445,3.4972495 -4.2493686,5.9735095 0.7471238,0.609 1.2244981,1.53638 1.2244981,2.576 0,1.03938 -0.4773743,1.96676 -1.2246231,2.57563 0.6394991,2.47651 2.1793716,4.59076 4.2493686,5.97364 l 1.729372,-2.89688 c -1.776372,-1.25 -2.937995,-3.31463 -2.937995,-5.65264 z m 6.909364,-6.9093895 c 3.60962,0 6.570491,2.7676395 6.880865,6.2966395 l 3.370995,-0.0493 c -0.165875,-2.6055 -1.303997,-4.94526 -3.05312,-6.6648895 -0.899249,0.33975 -1.938122,0.28825 -2.835996,-0.23025 -0.898999,-0.519 -1.463123,-1.3945 -1.617623,-2.34463 -0.873999,-0.24187 -1.793872,-0.37375 -2.744996,-0.37375 -1.635747,0 -3.18112,0.384 -4.553868,1.064 l 1.643248,2.94501 c 0.884623,-0.41163 1.870372,-0.64288 2.910495,-0.64288 z m 0,13.8189095 c -1.040248,0 -2.025872,-0.23125 -2.91062,-0.64288 l -1.643498,2.94526 c 1.372873,0.67975 2.918371,1.06388 4.554118,1.06388 0.951124,0 1.870997,-0.13188 2.745121,-0.37375 0.1545,-0.95013 0.718749,-1.82563 1.617873,-2.34501 0.897874,-0.51825 1.936747,-0.56975 2.835996,-0.22988 1.748998,-1.71975 2.88712,-4.05951 3.052745,-6.66501 l -3.370995,-0.0493 c -0.310124,3.52951 -3.27112,6.29664 -6.88074,6.29664 z M 22.557466,7.7951825 c 1.131248,0.65338 2.577372,0.26575 3.230245,-0.86513 0.65325,-1.13137 0.266,-2.57738 -0.865373,-3.23063 -1.131124,-0.653 -2.577122,-0.2655 -3.230371,0.86588 -0.652999,1.13088 -0.265499,2.57701 0.865499,3.22988 z"
     id="path8"
     inkscape:connector-curvature="0"
     style="fill:#ffffff" /></svg>